<?xml version="1.0" standalone="no"?>
<!DOCTYPE svg PUBLIC "-//W3C//DTD SVG 20010904//EN"
 "http://www.w3.org/TR/2001/REC-SVG-20010904/DTD/svg10.dtd">
<svg version="1.0" xmlns="http://www.w3.org/2000/svg"
 width="500.000000pt" height="500.000000pt" viewBox="0 0 500.000000 500.000000"
 preserveAspectRatio="xMidYMid meet">
<metadata>
Created by potrace 1.11, written by Peter Selinger 2001-2013
</metadata>
<g transform="translate(0.000000,500.000000) scale(0.100000,-0.100000)"
fill="#000000" stroke="none">
<path d="M1600 4449 c-25 -4 -63 -9 -85 -13 -22 -3 -51 -8 -65 -11 -14 -3 -37
-7 -52 -10 -15 -3 -69 -19 -120 -36 -504 -167 -823 -568 -826 -1036 -2 -373
162 -677 478 -888 116 -78 194 -115 620 -295 446 -188 529 -230 606 -305 75
-75 94 -123 90 -233 -7 -188 -137 -300 -391 -337 -50 -8 -192 -7 -253 1 -243
30 -513 151 -749 336 l-61 48 -87 -102 c-48 -57 -103 -123 -124 -147 -20 -23
-44 -53 -54 -65 -10 -11 -37 -43 -60 -71 -23 -27 -67 -79 -98 -115 -30 -36
-58 -70 -62 -76 -13 -22 227 -205 385 -292 93 -51 247 -118 361 -156 136 -45
260 -72 442 -96 63 -9 405 -6 465 4 137 22 129 20 229 46 404 103 730 371 858
705 60 154 77 249 77 415 0 382 -145 659 -454 865 -132 88 -167 104 -775 350
-370 150 -463 200 -525 287 -85 117 -70 271 37 374 128 125 382 160 668 93
123 -29 325 -130 461 -230 47 -34 52 -36 65 -21 8 10 93 116 189 237 96 121
177 222 180 225 19 16 49 69 41 72 -5 1 -35 27 -67 56 -83 74 -78 70 -183 139
-51 35 -140 85 -197 113 -95 46 -303 122 -364 133 -55 10 -106 20 -125 24
-101 20 -375 27 -475 12z"/>
<path d="M4228 1615 c-2 -2 -32 -4 -68 -6 -221 -8 -414 -171 -465 -394 -90
-388 199 -722 578 -667 130 19 219 71 330 192 50 55 95 181 103 291 19 229
-98 443 -289 533 -48 22 -182 58 -189 51z"/>
</g>
</svg>
